<svg width="15" height="15" viewBox="0 0 20 20" fill="none" xmlns="http://www.w3.org/2000/svg">
<path d="M18.4999 11.4167H11.4166V18.5C11.4166 19.2792 10.7791 19.9167 9.99992 19.9167C9.22075 19.9167 8.58325 19.2792 8.58325 18.5V11.4167H1.49992C0.720752 11.4167 0.083252 10.7792 0.083252 10C0.083252 9.22087 0.720752 8.58337 1.49992 8.58337H8.58325V1.50004C8.58325 0.720874 9.22075 0.083374 9.99992 0.083374C10.7791 0.083374 11.4166 0.720874 11.4166 1.50004V8.58337H18.4999C19.2791 8.58337 19.9166 9.22087 19.9166 10C19.9166 10.7792 19.2791 11.4167 18.4999 11.4167Z" fill="#006FBC"/>
</svg>
