<svg width="19" height="18" viewBox="0 0 19 18" fill="none" xmlns="http://www.w3.org/2000/svg">
<path d="M9.42188 1.6875C6.78516 1.6875 4.39453 3.09375 3.05859 5.34375C1.75781 7.62891 1.75781 10.4062 3.05859 12.6562C4.39453 14.9414 6.78516 16.3125 9.42188 16.3125C12.0234 16.3125 14.4141 14.9414 15.75 12.6562C17.0508 10.4062 17.0508 7.62891 15.75 5.34375C14.4141 3.09375 12.0234 1.6875 9.42188 1.6875ZM9.42188 18C6.1875 18 3.23438 16.3125 1.61719 13.5C0 10.7227 0 7.3125 1.61719 4.5C3.23438 1.72266 6.1875 0 9.42188 0C12.6211 0 15.5742 1.72266 17.1914 4.5C18.8086 7.3125 18.8086 10.7227 17.1914 13.5C15.5742 16.3125 12.6211 18 9.42188 18ZM13.3945 7.34766L8.89453 11.8477C8.54297 12.1992 8.01562 12.1992 7.69922 11.8477L5.44922 9.59766C5.09766 9.28125 5.09766 8.75391 5.44922 8.4375C5.76562 8.08594 6.29297 8.08594 6.64453 8.4375L8.29688 10.0898L12.1992 6.1875C12.5156 5.83594 13.043 5.83594 13.3945 6.1875C13.7109 6.50391 13.7109 7.03125 13.3945 7.34766Z" fill="#34C759"/>
</svg>
