<svg width="26" height="32" viewBox="0 0 32 40" fill="none" xmlns="http://www.w3.org/2000/svg">
<g clip-path="url(#clip0_306_419)">
<path d="M18.8264 21.8246H9.54434C8.50966 21.8246 7.66992 21.009 7.66992 20.0041C7.66992 18.9992 8.50966 18.1836 9.54434 18.1836H18.8264C19.8611 18.1836 20.7008 18.9992 20.7008 20.0041C20.7008 21.009 19.8611 21.8246 18.8264 21.8246Z" fill="#006FBC"/>
<path d="M16.5322 12.3789L30.1255 20.0032L16.5322 27.6274V12.3789Z" fill="#006FBC"/>
<path d="M30.1256 40H9.04967C4.05623 40 0 36.0604 0 31.2106V8.78937C0 3.93956 4.06373 0 9.04967 0H30.1256C31.1603 0 32 0.815583 32 1.8205C32 2.82541 31.1603 3.641 30.1256 3.641H9.04967C6.12559 3.641 3.74883 5.94939 3.74883 8.78937V31.2106C3.74883 34.0506 6.12559 36.359 9.04967 36.359H30.1256C31.1603 36.359 32 37.1746 32 38.1795C32 39.1844 31.1603 40 30.1256 40Z" fill="#006FBC"/>
</g>
<defs>
<clipPath id="clip0_306_419">
<rect width="32" height="40" fill="white"/>
</clipPath>
</defs>
</svg>
