<svg width="25" height="21" viewBox="0 0 25 21" fill="none" xmlns="http://www.w3.org/2000/svg">
<path d="M0 1.3125C0 0.601562 0.546875 0 1.3125 0H23.1875C23.8984 0 24.5 0.601562 24.5 1.3125C24.5 2.07812 23.8984 2.625 23.1875 2.625H1.3125C0.546875 2.625 0 2.07812 0 1.3125ZM0 10.0625C0 9.35156 0.546875 8.75 1.3125 8.75H23.1875C23.8984 8.75 24.5 9.35156 24.5 10.0625C24.5 10.8281 23.8984 11.375 23.1875 11.375H1.3125C0.546875 11.375 0 10.8281 0 10.0625ZM24.5 18.8125C24.5 19.5781 23.8984 20.125 23.1875 20.125H1.3125C0.546875 20.125 0 19.5781 0 18.8125C0 18.1016 0.546875 17.5 1.3125 17.5H23.1875C23.8984 17.5 24.5 18.1016 24.5 18.8125Z" fill="currentColor"/>
</svg>
