<svg width="16" height="16" viewBox="0 0 16 16" fill="none" xmlns="http://www.w3.org/2000/svg">
<path d="M0.315092 8.435L4.77009 14.675C5.14509 15.2 5.73009 15.5 6.36009 15.5C7.95009 15.5 8.88009 13.7 7.95009 12.395L4.81509 8L7.95009 3.605C8.88009 2.3 7.95009 0.5 6.36009 0.5C5.73009 0.5 5.13009 0.8 4.77009 1.325L0.315092 7.565C0.120092 7.82 0.120092 8.18 0.315092 8.435Z" fill="#006FBC"/>
<path d="M7.81505 8.435L12.27 14.675C12.645 15.2 13.23 15.5 13.86 15.5C15.465 15.5 16.395 13.7 15.465 12.395L12.315 8L15.45 3.605C16.3951 2.3 15.465 0.5 13.86 0.5C13.23 0.5 12.63 0.8 12.27 1.325L7.81505 7.565C7.62005 7.82 7.62005 8.18 7.81505 8.435Z" fill="#006FBC"/>
</svg>
