<svg width="16" height="16" viewBox="0 0 16 16" fill="none" xmlns="http://www.w3.org/2000/svg">
<path d="M15.6887 8.435L11.2337 14.675C10.8587 15.2 10.2737 15.5 9.64371 15.5C8.05371 15.5 7.12371 13.7 8.05371 12.395L11.1887 8L8.05371 3.605C7.12371 2.3 8.05371 0.5 9.64371 0.5C10.2737 0.5 10.8737 0.8 11.2337 1.325L15.6887 7.565C15.8837 7.82 15.8837 8.18 15.6887 8.435Z" fill="#006FBC"/>
<path d="M8.18875 8.435L3.73375 14.675C3.35875 15.2 2.77375 15.5 2.14375 15.5C0.538751 15.5 -0.391249 13.7 0.538751 12.395L3.68875 8L0.553749 3.605C-0.391251 2.3 0.53875 0.5 2.14375 0.5C2.77375 0.5 3.37375 0.8 3.73375 1.325L8.18875 7.565C8.38375 7.82 8.38375 8.18 8.18875 8.435Z" fill="#006FBC"/>
</svg>
