<svg width="81" height="113" viewBox="0 0 81 113" fill="none" xmlns="http://www.w3.org/2000/svg">
<path d="M0.188915 81.9611L0.188915 22.7542C0.188915 19.29 2.86582 16.4556 6.48752 16.4556L24.1236 16.4556C27.5879 16.4556 30.4222 19.29 30.4222 22.7542L30.4222 81.9611C30.4222 90.3068 23.6512 97.0778 15.3056 97.0778C6.95992 97.0778 0.188915 90.3068 0.188915 81.9611ZM15.3056 94.5583C22.234 94.5583 27.9028 89.047 27.9028 81.9611L27.9028 22.7542C27.9028 20.7072 26.1707 18.975 24.1236 18.975L6.48752 18.975C4.28301 18.975 2.70836 20.7072 2.70836 22.7542L2.70836 81.9611C2.70836 89.047 8.21964 94.5583 15.3056 94.5583ZM74.5125 97.0778L28.5326 97.0778C29.4774 96.4479 30.2648 95.5031 30.8946 94.5583L74.5125 94.5583C76.5595 94.5583 78.2916 92.9837 78.2916 90.7792V73.1431C78.2916 71.096 76.5595 69.3639 74.5125 69.3639H53.8845L56.404 66.8445H74.5125C77.9767 66.8445 80.8111 69.6788 80.8111 73.1431V90.7792C80.8111 94.4009 77.9767 97.0778 74.5125 97.0778ZM35.3036 83.2208C35.3036 82.7484 35.4611 82.4335 35.4611 81.9611V79.5991L66.1668 48.8934C67.584 47.4762 67.584 44.9568 66.1668 43.5396L53.5696 31.0999C52.1524 29.5252 49.7904 29.5252 48.2158 31.0999L35.4611 44.012V40.3903L46.4837 29.2103C49.0031 26.8483 52.9397 26.8483 55.4592 29.2103L67.8989 41.8075C70.2609 44.1695 70.2609 48.2636 67.8989 50.6255L35.3036 83.2208ZM19.0847 24.0139C21.1318 24.0139 22.8639 25.746 22.8639 27.7931L22.8639 35.3514C22.8639 37.5559 21.1318 39.1306 19.0847 39.1306H11.5264C9.3219 39.1306 7.74724 37.5559 7.74724 35.3514L7.74724 27.7931C7.74724 25.746 9.3219 24.0139 11.5264 24.0139H19.0847ZM10.2667 27.7931V35.3514C10.2667 36.1387 10.7391 36.6111 11.5264 36.6111H19.0847C19.7146 36.6111 20.3445 36.1387 20.3445 35.3514L20.3445 27.7931C20.3445 27.1632 19.7146 26.5334 19.0847 26.5334H11.5264C10.7391 26.5334 10.2667 27.1632 10.2667 27.7931ZM11.5264 44.1695H19.0847C21.1318 44.1695 22.8639 45.9016 22.8639 47.9486L22.8639 55.507C22.8639 57.7115 21.1318 59.2861 19.0847 59.2861H11.5264C9.3219 59.2861 7.74724 57.7115 7.74724 55.507L7.74724 47.9486C7.74724 45.9016 9.3219 44.1695 11.5264 44.1695ZM11.5264 46.6889C10.7391 46.6889 10.2667 47.3188 10.2667 47.9486L10.2667 55.507C10.2667 56.2943 10.7391 56.7667 11.5264 56.7667H19.0847C19.7146 56.7667 20.3445 56.2943 20.3445 55.507L20.3445 47.9486C20.3445 47.3188 19.7146 46.6889 19.0847 46.6889H11.5264ZM17.825 81.9611C17.825 80.7014 16.5653 79.4417 15.3056 79.4417C13.8884 79.4417 12.7861 80.7014 12.7861 81.9611C12.7861 83.3783 13.8884 84.4806 15.3056 84.4806C16.5653 84.4806 17.825 83.3783 17.825 81.9611ZM15.3056 76.9222C17.9825 76.9222 20.3445 79.2842 20.3445 81.9611C20.3445 84.7955 17.9825 87 15.3056 87C12.4712 87 10.2667 84.7955 10.2667 81.9611C10.2667 79.2842 12.4712 76.9222 15.3056 76.9222Z" fill="#149FFF"/>
</svg>
