<svg width="81" height="113" viewBox="0 0 81 113" fill="none" xmlns="http://www.w3.org/2000/svg">
<path d="M20.3445 24.0139V31.5723L20.3445 39.1306L78.2916 39.1306V31.5723C78.2916 27.4782 74.8274 24.0139 70.7333 24.0139L20.3445 24.0139ZM17.825 24.0139L10.2667 24.0139C6.01513 24.0139 2.70836 27.4782 2.70836 31.5723L2.70836 39.1306H17.825L17.825 31.5723V24.0139ZM2.70836 41.65L2.70836 81.9611C2.70836 86.2127 6.01513 89.5194 10.2667 89.5194L70.7333 89.5194C74.8274 89.5194 78.2916 86.2127 78.2916 81.9611L78.2916 41.65L19.0847 41.65H2.70836ZM0.188915 31.5723C0.188915 26.061 4.59794 21.4945 10.2667 21.4945L70.7333 21.4945C76.2446 21.4945 80.8111 26.061 80.8111 31.5723L80.8111 81.9611C80.8111 87.6299 76.2446 92.0389 70.7333 92.0389L10.2667 92.0389C4.59794 92.0389 0.188915 87.6299 0.188915 81.9611L0.188915 31.5723Z" fill="#149FFF"/>
</svg>
