<svg width="101" height="113" viewBox="0 0 101 113" fill="none" xmlns="http://www.w3.org/2000/svg">
<path d="M82.4654 53.4599C82.1505 52.8301 81.993 52.0427 82.308 51.2554C82.9378 49.8382 83.0953 48.421 83.0953 46.6889C83.0953 39.7604 77.584 34.0917 70.4981 34.0917C67.9786 34.0917 65.6167 34.879 63.5696 36.2962C62.9397 36.6111 62.3099 36.7686 61.68 36.6111C60.8927 36.4537 60.4203 35.9813 59.9479 35.5089C56.0113 28.5804 48.7679 24.0139 40.4222 24.0139C27.825 24.0139 17.7472 34.2492 17.7472 46.6889C17.7472 47.1613 17.7472 47.4762 17.7472 47.9486C17.7472 49.0509 17.1174 49.9957 16.0151 50.4681C8.14187 53.145 2.63059 60.7033 2.63059 69.3639C2.63059 80.5439 11.6061 89.5194 22.7861 89.5194L80.7333 89.5194C90.3387 89.5194 98.3694 81.6462 98.3694 71.8833C98.3694 63.3802 92.2283 56.2943 84.1975 54.7196C83.4102 54.5622 82.7804 54.0898 82.4654 53.4599ZM60.8927 32.0447C61.3651 32.6745 61.8375 33.4618 62.1524 34.2492C62.7823 33.7768 63.2547 33.4618 63.8845 33.1469C65.9316 32.2021 68.1361 31.5723 70.6555 31.5723C79.0012 31.5723 85.7722 38.3433 85.7722 46.6889C85.7722 47.7912 85.6147 48.736 85.4573 49.8382C85.2998 50.6255 84.9849 51.4129 84.6699 52.2002C85.4573 52.3577 86.4021 52.5151 87.1894 52.8301C95.0626 55.507 100.889 63.0653 100.889 71.8833C100.889 83.0634 91.7559 92.0389 80.7333 92.0389L22.7861 92.0389C10.1889 92.0389 0.111145 81.9611 0.111145 69.3639C0.111145 59.6011 6.40975 51.0979 15.2278 48.1061C15.2278 47.6337 15.2278 47.1613 15.2278 46.6889C15.2278 32.832 26.4078 21.4945 40.4222 21.4945C48.7679 21.4945 56.3262 25.746 60.8927 32.0447Z" fill="#149FFF"/>
<path d="M38.2676 58.8678C38.1851 60.6824 39.1748 61.5071 39.1748 62.0845C39.1748 62.2494 39.0099 62.4969 38.8449 62.5793L37.7727 63.3216C37.6077 63.4041 37.4428 63.4866 37.2778 63.4866C37.2778 63.4866 36.618 63.6516 35.6283 61.3422C34.3911 62.9093 32.4116 63.8165 30.4322 63.8165C29.1125 63.8165 25.4835 62.9917 25.6485 59.1153C25.4835 55.9811 28.4527 54.0017 31.5044 54.1666C32.0817 54.1666 33.3189 54.2491 35.3808 54.744V53.4243C35.6283 51.1974 34.1437 49.5479 31.6693 49.7953C31.5044 49.7953 30.1023 49.7953 27.8754 50.6201C27.298 50.95 27.2155 50.8675 27.0506 50.8675C26.3908 50.8675 26.6382 49.053 26.8031 48.888C27.2155 48.3107 29.6899 47.321 32.2467 47.4034C33.8962 47.2385 35.5458 47.7333 36.783 48.8056C37.8552 49.9602 38.35 51.5273 38.2676 53.0944V58.8678ZM31.092 61.5071C33.8138 61.4247 34.9684 59.8576 35.2159 58.9503C35.3808 58.1255 35.3808 57.6307 35.3808 56.7234C34.5561 56.5585 33.4014 56.311 32.0817 56.311C30.8446 56.2286 28.5352 56.8059 28.7001 58.9503C28.5352 60.3524 29.6074 61.5896 31.092 61.5071ZM45.1957 63.4041C44.6184 63.4866 44.2884 62.9917 44.206 62.5793L40.0821 48.9705C39.9996 48.7231 39.9171 48.4756 39.9171 48.2282C39.9171 48.0633 39.9996 47.8158 40.247 47.8158C40.247 47.8158 40.0821 47.8158 42.0615 47.8158C42.8038 47.7333 43.0513 48.3107 43.1338 48.6406L46.0205 60.27L48.8247 48.6406C48.8247 48.3932 48.9897 47.7333 49.8145 47.8158L51.2991 47.8158C51.464 47.8158 52.2063 47.8158 52.2888 48.7231L55.093 60.4349L58.0622 48.7231C58.1447 48.4756 58.3097 47.7333 59.1344 47.8158H60.784C60.8665 47.8158 61.2789 47.7333 61.1964 48.5581C61.1964 48.7231 61.5263 47.6509 56.8251 62.5793C56.7426 62.9917 56.4952 63.4866 55.8353 63.4041H54.2683C53.361 63.4866 53.2785 62.5793 53.196 62.4969L50.4743 51.1974L47.7525 62.4969C47.7525 62.5793 47.67 63.4866 46.7628 63.4041H45.1957ZM67.7946 63.899C67.2997 63.899 64.9904 63.8165 63.0934 62.8268C62.681 62.6618 62.4336 62.3319 62.4336 61.837V61.0123C62.4336 60.27 62.9284 60.4349 63.1759 60.5174C64.0006 60.8473 64.4955 61.0947 65.4852 61.2597C68.5369 61.9195 69.8566 61.0947 70.1865 60.9298C71.2587 60.27 71.3412 58.7854 70.5989 58.0431C69.7741 57.3008 69.3617 57.3008 66.2275 56.311C65.8976 56.2286 62.681 55.1563 62.5985 52.0222C62.5985 49.6303 64.6605 47.321 68.372 47.4034C69.4442 47.4034 72.1659 47.7333 72.9907 48.6406C73.0732 48.8056 73.1557 49.053 73.0732 49.2179V50.0427C73.0732 50.4551 72.9907 50.6201 72.7433 50.6201C72.0835 50.5376 70.9288 49.7128 68.6194 49.7128C68.1245 49.7128 65.4028 49.7953 65.4852 51.7748C65.4852 53.3418 67.7121 53.9192 67.9596 54.0017C70.9288 54.9089 71.9185 55.0739 73.1557 56.476C74.5578 58.2905 73.8155 60.4349 73.4856 61.0123C71.9185 64.1464 67.8771 63.899 67.7946 63.899ZM71.0937 72.4767C65.3203 76.7655 56.9075 79.0749 49.8145 79.0749C40.0821 79.0749 30.7621 75.5284 23.5865 69.0951C23.0916 68.6002 23.5865 67.9404 24.2463 68.2703C32.1642 72.8891 41.1543 75.2809 50.3093 75.2809C57.155 75.1985 63.9182 73.7963 70.2689 71.157C71.2587 70.7447 72.0835 71.8169 71.0937 72.4767ZM73.4856 69.7549C72.7433 68.8477 68.6194 69.3425 66.7224 69.5075C66.2275 69.59 66.1451 69.0951 66.6399 68.7652C69.939 66.4558 75.3826 67.1156 75.9599 67.8579C76.6197 68.6827 75.795 74.1262 72.7433 76.6831C72.2484 77.0954 71.7535 76.9305 72.001 76.3531C72.6608 74.6211 74.2279 70.7447 73.4856 69.7549Z" fill="#149FFF"/>
</svg>
