<svg width="91" height="113" viewBox="0 0 91 113" fill="none" xmlns="http://www.w3.org/2000/svg">
<path d="M44.0828 19.29L26.6042 25.4311L45.5 32.6745L64.2384 25.4311L46.7597 19.29C45.8149 18.975 45.0276 18.975 44.0828 19.29ZM22.825 50.9405L22.825 26.8483C22.825 25.2737 23.7698 23.8565 25.187 23.3841L43.2955 16.928C44.7127 16.4556 46.1299 16.4556 47.547 16.928L65.6555 23.3841C67.0727 23.8565 68.175 25.2737 68.175 26.8483L68.175 50.9405L88.1731 57.7115C89.7477 58.1839 90.85 59.6011 90.85 61.3332V84.953C90.85 87 89.5902 88.8896 87.5432 89.6769L69.9071 96.6054C68.8048 96.9203 67.5451 97.0778 66.2854 96.6054L45.5 88.8896L24.5571 96.6054C23.2974 97.0778 22.0377 97.0778 20.9354 96.6054L3.29933 89.6769C1.40975 88.8896 0.150028 87 0.150028 84.953L0.150028 61.3332C0.150028 59.6011 1.09482 58.1839 2.66947 57.7115L22.825 50.9405ZM25.3445 50.9405L44.2403 58.8137V34.879L25.3445 27.6356L25.3445 50.9405ZM46.7597 62.4354L46.7597 86.6851L66.9153 94.0859V70.3087L46.7597 62.4354ZM23.9273 53.145L3.92919 59.916L22.825 68.1042L41.8783 60.7033L23.9273 53.145ZM2.66947 84.953C2.66947 86.0552 3.29933 86.8425 4.24412 87.3149L21.5653 94.0859L21.5653 70.3087L2.66947 62.1205L2.66947 84.953ZM24.0847 94.0859L44.2403 86.6851L44.2403 62.4354L24.0847 70.3087L24.0847 94.0859ZM46.7597 34.879V58.8137L65.6555 50.9405L65.6555 27.6356L46.7597 34.879ZM48.9642 60.7033L68.0175 68.1042L86.9133 59.916L66.9153 53.145L48.9642 60.7033ZM86.5984 87.3149C87.7007 86.8425 88.3305 86.0552 88.3305 84.953V62.1205L69.4347 70.3087V94.0859L86.5984 87.3149Z" fill="#149FFF"/>
</svg>
