<svg width="61" height="113" viewBox="0 0 61 113" fill="none" xmlns="http://www.w3.org/2000/svg">
<path d="M15.3833 18.975C11.1318 18.975 7.82501 22.4393 7.82501 26.5334L7.82501 87C7.82501 91.2516 11.1318 94.5583 15.3833 94.5583L45.6167 94.5583C49.7108 94.5583 53.175 91.2516 53.175 87L53.175 26.5334C53.175 22.4393 49.7108 18.975 45.6167 18.975L15.3833 18.975ZM5.30557 26.5334C5.30557 21.0221 9.7146 16.4556 15.3833 16.4556L45.6167 16.4556C51.1279 16.4556 55.6944 21.0221 55.6944 26.5334L55.6944 87C55.6944 92.6687 51.1279 97.0778 45.6167 97.0778L15.3833 97.0778C9.7146 97.0778 5.30557 92.6687 5.30557 87L5.30557 26.5334ZM22.9417 84.4806H38.0583C38.6882 84.4806 39.318 85.1104 39.318 85.7403C39.318 86.5276 38.6882 87 38.0583 87H22.9417C22.1543 87 21.6819 86.5276 21.6819 85.7403C21.6819 85.1104 22.1543 84.4806 22.9417 84.4806Z" fill="#149FFF"/>
</svg>
