<svg width="118" height="100" viewBox="0 0 118 100" fill="none" xmlns="http://www.w3.org/2000/svg">
<path d="M73.1719 10.1131C73.8017 10.2705 74.2741 11.0579 73.9592 11.6877L46.2453 89.7904C46.0879 90.4203 45.3005 90.8927 44.6707 90.5778C44.0408 90.4203 43.7259 89.633 43.8833 89.0031L71.5972 10.9004C71.9121 10.2705 72.542 9.79814 73.1719 10.1131ZM84.5094 29.3238C84.9818 28.8514 85.7691 28.8514 86.2415 29.3238L107.657 49.4794C107.972 49.6368 108.129 49.9518 108.129 50.2667C108.129 50.7391 107.972 51.054 107.657 51.2115L86.2415 71.367C85.7691 71.8394 84.9818 71.8394 84.5094 71.367C84.037 70.8946 84.037 70.1073 84.5094 69.6349L104.98 50.2667L84.5094 31.0559C84.037 30.5835 84.037 29.7962 84.5094 29.3238ZM33.3332 29.3238C33.8056 29.7962 33.8056 30.5835 33.3332 31.0559L12.8627 50.2667L33.3332 69.6349C33.8056 70.1073 33.8056 70.8946 33.3332 71.367C32.8608 71.8394 32.0735 71.8394 31.6011 71.367L10.1858 51.2115C9.87087 51.054 9.87087 50.7391 9.87087 50.2667C9.87087 49.9518 9.87087 49.6368 10.1858 49.4794L31.6011 29.3238C32.0735 28.8514 32.8608 28.8514 33.3332 29.3238Z" fill="#149FFF"/>
</svg>
