<svg width="197" height="48" viewBox="0 0 197 48" fill="none" xmlns="http://www.w3.org/2000/svg">
<path d="M61.8857 21.0213C62.3634 20.7881 62.7885 20.453 63.1334 20.038C63.6674 19.4275 63.9598 18.6304 63.9525 17.8057C63.9525 16.1182 63.4662 14.9091 62.5 14.2182C61.4964 13.5267 60.3126 13.1719 59.1086 13.2017H50.3999V29.9902H59.1086C60.5879 30.073 62.0497 29.6249 63.2486 28.7213C63.7587 28.2939 64.1644 27.7473 64.4324 27.1261C64.7004 26.5049 64.8231 25.8268 64.7907 25.147C64.8294 24.5752 64.7456 24.0016 64.5454 23.4675C64.3451 22.9333 64.0334 22.4518 63.6325 22.0577C63.1255 21.5905 62.5307 21.2376 61.8857 21.0213ZM53.0682 15.7794H58.5583C59.2078 15.7804 59.8417 15.9867 60.3756 16.3707C60.617 16.5177 60.8176 16.7272 60.9578 16.9787C61.0979 17.2302 61.1729 17.5152 61.1754 17.8057C61.1737 18.1282 61.0993 18.4458 60.9582 18.733C60.8171 19.0203 60.6132 19.2693 60.3628 19.46C59.8613 19.9104 59.2214 20.1602 58.5583 20.1643H53.0746L53.0682 15.7794ZM61.3226 26.8212C60.7152 27.2385 59.9962 27.4455 59.2686 27.4125H53.0682V22.7619H59.2686C59.9403 22.7705 60.5996 22.9508 61.1882 23.2868C61.493 23.4798 61.7382 23.7595 61.8947 24.0927C62.0512 24.4259 62.1124 24.7987 62.0712 25.1669C62.0893 25.4856 62.0302 25.804 61.8995 26.0929C61.7687 26.3818 61.5704 26.6322 61.3226 26.8212Z" fill="#006FBC"/>
<path d="M81.206 15.4569C79.4887 14.0017 77.2879 13.2 75.0101 13.2C72.7324 13.2 70.5316 14.0017 68.8143 15.4569C67.9286 16.2317 67.2203 17.179 66.7354 18.2373C66.2506 19.2957 66 20.4413 66 21.6C66 22.7586 66.2506 23.9043 66.7354 24.9626C67.2203 26.0209 67.9286 26.9682 68.8143 27.743C70.5316 29.1983 72.7324 30 75.0101 30C77.2879 30 79.4887 29.1983 81.206 27.743C82.086 26.9648 82.7892 26.0164 83.2703 24.9586C83.7515 23.9007 84 22.7567 84 21.6C84 20.4432 83.7515 19.2992 83.2703 18.2413C82.7892 17.1835 82.086 16.2351 81.206 15.4569ZM79.0925 25.6473C77.97 26.6297 76.5133 27.1733 75.0033 27.1733C73.4932 27.1733 72.0365 26.6297 70.914 25.6473C70.3257 25.1499 69.8586 24.5313 69.5466 23.8364C69.2347 23.1416 69.0856 22.3879 69.1103 21.6301C69.0798 20.8721 69.2255 20.1173 69.5366 19.4217C69.8477 18.7262 70.3162 18.1079 70.9071 17.6128C72.0387 16.6431 73.4951 16.1081 75.0033 16.1081C76.5114 16.1081 77.9678 16.6431 79.0994 17.6128C79.6953 18.105 80.1684 18.7222 80.4833 19.4181C80.7981 20.114 80.9463 20.8703 80.9168 21.6301C80.941 22.3898 80.7896 23.145 80.4739 23.8403C80.1582 24.5355 79.6861 25.153 79.0925 25.6473Z" fill="#006FBC"/>
<path d="M99.3977 15.4553C97.7937 14.001 95.7391 13.2 93.6128 13.2C91.4865 13.2 89.4319 14.001 87.8279 15.4553C87.0009 16.2303 86.3395 17.1779 85.8868 18.2365C85.4342 19.2951 85.2002 20.441 85.2002 21.6C85.2002 22.7589 85.4342 23.9048 85.8868 24.9634C86.3395 26.022 87.0009 26.9696 87.8279 27.7446C89.4319 29.1989 91.4865 30 93.6128 30C95.7391 30 97.7937 29.1989 99.3977 27.7446C100.218 26.9651 100.873 26.0161 101.321 24.9581C101.769 23.9001 102 22.7564 102 21.6C102 20.4435 101.769 19.2998 101.321 18.2418C100.873 17.1838 100.218 16.2348 99.3977 15.4553ZM97.4244 25.6484C96.3753 26.6315 95.0142 27.1755 93.6032 27.1755C92.1921 27.1755 90.831 26.6315 89.7819 25.6484C89.2326 25.1508 88.7965 24.532 88.5052 23.837C88.2139 23.142 88.0748 22.3881 88.0978 21.6301C88.0692 20.8713 88.2058 20.1156 88.4975 19.4197C88.7891 18.7238 89.2283 18.1057 89.7819 17.6118C90.838 16.6437 92.1965 16.1096 93.6032 16.1096C95.0098 16.1096 96.3683 16.6437 97.4244 17.6118C97.9808 18.104 98.4226 18.7215 98.7165 19.4176C99.0105 20.1136 99.1489 20.8701 99.1213 21.6301C99.1437 22.3893 99.003 23.1441 98.7094 23.8393C98.4158 24.5346 97.9768 25.1527 97.4244 25.6484Z" fill="#006FBC"/>
<path d="M120.669 13.5182C120.409 13.3258 120.1 13.2152 119.779 13.2C119.522 13.2039 119.27 13.2675 119.041 13.3856C118.754 13.5573 118.525 13.8141 118.387 14.1215L112.719 26.1745L107.488 14.4132C107.328 14.0183 107.04 13.6907 106.671 13.485C106.385 13.3141 106.062 13.2163 105.73 13.2C105.425 13.2176 105.134 13.3286 104.893 13.5182C104.718 13.6712 104.582 13.8654 104.498 14.0838C104.413 14.3022 104.383 14.5382 104.409 14.7712V28.4751C104.385 28.7001 104.417 28.9276 104.502 29.137C104.586 29.3465 104.72 29.5314 104.893 29.6751C105.133 29.8664 105.425 29.9796 105.73 30C106.058 29.9835 106.376 29.8731 106.645 29.6817C106.829 29.5451 106.976 29.3617 107.068 29.15C107.161 28.9383 107.198 28.7056 107.175 28.4751V19.1138L111.594 28.979C111.729 29.3216 111.986 29.6006 112.313 29.7613C112.57 29.9055 112.857 29.9872 113.15 30C113.425 29.9905 113.691 29.893 113.908 29.7215C114.161 29.5271 114.361 29.2719 114.49 28.979L118.465 20.2077V28.4751C118.439 28.701 118.47 28.93 118.556 29.1401C118.642 29.3503 118.779 29.5345 118.956 29.6751C119.196 29.8664 119.488 29.9796 119.792 30C120.113 29.9848 120.423 29.8741 120.682 29.6817C120.863 29.5428 121.005 29.3584 121.094 29.1469C121.184 28.9353 121.217 28.7038 121.192 28.4751V14.7712C121.217 14.5344 121.183 14.2949 121.091 14.0755C121 13.8561 120.854 13.6642 120.669 13.5182Z" fill="#006FBC"/>
<path d="M144.568 14.2271C143.379 13.5427 142.034 13.1886 140.669 13.2002H133.203V28.6103C133.189 28.8168 133.228 29.0235 133.317 29.2096C133.406 29.3957 133.542 29.5546 133.71 29.6704C133.947 29.8828 134.252 30 134.568 30C134.883 30 135.188 29.8828 135.425 29.6704C135.586 29.5503 135.714 29.3908 135.798 29.2066C135.882 29.0225 135.92 28.8196 135.906 28.617V23.0982H140.39C141.831 23.1209 143.253 22.7674 144.522 22.0713C145.77 21.3691 146.4 20.0241 146.4 18.0962C146.4 16.1683 145.783 14.9294 144.568 14.2271ZM142.67 20.0838C141.944 20.376 141.17 20.5265 140.39 20.5277H135.906V15.7708H140.39C141.17 15.7703 141.944 15.9186 142.67 16.2081C143.359 16.4863 143.691 17.0958 143.691 18.0764C143.691 19.0569 143.359 19.8055 142.67 20.0838Z" fill="#006FBC"/>
<path d="M160.809 27.4184H151.459V14.7288C151.487 14.4973 151.457 14.2623 151.374 14.0459C151.29 13.8295 151.155 13.639 150.981 13.4924C150.731 13.3137 150.438 13.2123 150.135 13.2C149.839 13.2186 149.553 13.3196 149.307 13.4924C149.127 13.6341 148.986 13.8232 148.899 14.0405C148.812 14.2577 148.781 14.4953 148.811 14.7288V28.3224C148.8 28.7276 148.897 29.1278 149.091 29.4791C149.186 29.6442 149.322 29.7796 149.484 29.8708C149.647 29.9621 149.83 30.0059 150.014 29.9976H160.835C161.008 30.0096 161.181 29.9757 161.338 29.899C161.495 29.8223 161.631 29.7053 161.732 29.5588C161.908 29.2957 162.001 28.9822 162 28.6615C162.001 28.3601 161.905 28.0671 161.726 27.8306C161.618 27.6874 161.478 27.5747 161.318 27.5027C161.158 27.4307 160.983 27.4017 160.809 27.4184Z" fill="#006FBC"/>
<path d="M174.319 15.0696C174.121 14.5777 173.845 14.1275 173.503 13.7395C173.345 13.5621 173.154 13.4226 172.943 13.3298C172.732 13.2371 172.505 13.1931 172.277 13.2008C172.06 13.1968 171.844 13.2427 171.645 13.3355C171.445 13.4284 171.266 13.5661 171.119 13.7395C170.786 14.1381 170.507 14.5859 170.291 15.0696L164.583 27.5525C164.373 28.136 164.343 28.7778 164.497 29.3814C164.588 29.5853 164.734 29.7536 164.916 29.8632C165.099 29.9729 165.308 30.0183 165.515 29.9932C165.81 30.0044 166.104 29.9501 166.38 29.8336C166.687 29.6414 166.921 29.3375 167.042 28.9757L168.599 25.3778H175.76L177.36 28.9691C177.476 29.3411 177.72 29.6504 178.04 29.8336C178.322 29.9487 178.622 30.0029 178.923 29.9932C179.129 30.0185 179.336 29.9722 179.516 29.861C179.695 29.7498 179.838 29.5795 179.922 29.3748C180.056 28.7576 180.016 28.111 179.806 27.5193L174.319 15.0696ZM169.85 22.7975L172.302 17.3906L174.674 22.7975H169.85Z" fill="#006FBC"/>
<path d="M196.794 14.0624C196.772 13.9611 196.729 13.8653 196.669 13.781C196.608 13.6967 196.531 13.6256 196.442 13.572C196.116 13.334 195.723 13.2041 195.318 13.2009C194.98 13.1905 194.645 13.2634 194.341 13.413C193.978 13.6623 193.68 13.9939 193.47 14.3805L189.602 19.9205L185.773 14.3871C185.544 14.0024 185.233 13.6722 184.863 13.4196C184.586 13.2758 184.277 13.2029 183.965 13.2076C183.553 13.2161 183.151 13.3426 182.809 13.572C182.712 13.6267 182.627 13.6999 182.558 13.7874C182.49 13.875 182.439 13.9752 182.41 14.0823C182.394 14.1725 182.397 14.265 182.419 14.3539C182.441 14.4429 182.481 14.5264 182.536 14.5992L188.18 22.4918V28.6216C188.166 28.8273 188.205 29.0332 188.295 29.219C188.385 29.4049 188.521 29.5643 188.691 29.6819C188.957 29.8754 189.274 29.9861 189.602 30C189.917 29.9811 190.22 29.8705 190.473 29.6819C190.643 29.5643 190.779 29.4049 190.869 29.219C190.959 29.0332 190.998 28.8273 190.985 28.6216V22.5978L196.628 14.6191C196.693 14.543 196.741 14.4542 196.77 14.3583C196.799 14.2624 196.807 14.1616 196.794 14.0624Z" fill="#006FBC"/>
<path d="M26.04 19.7221H25.1617C30.4446 18.9436 34.481 14.863 34.481 9.93244C34.481 4.44397 29.4823 0 23.3146 0H0V19.7221H19.9369V39.6H26.04C32.2013 39.6 37.2 35.1495 37.2 29.6611C37.1806 24.1726 32.1819 19.7221 26.04 19.7221Z" fill="#006FBC"/>
<path d="M0 20.4001V39.8359V39.887L1.82032 40.9163L14.4 48.0001V40.9163V39.8359V28.411L0.169029 20.4001H0Z" fill="#006FBC"/>
</svg>
